<?xml version="1.0" standalone="no"?>
<!DOCTYPE svg PUBLIC "-//W3C//DTD SVG 20010904//EN"
 "http://www.w3.org/TR/2001/REC-SVG-20010904/DTD/svg10.dtd">
<svg version="1.0" xmlns="http://www.w3.org/2000/svg"
 width="500.000000pt" height="500.000000pt" viewBox="0 0 500.000000 500.000000"
 preserveAspectRatio="xMidYMid meet">
<metadata>
Created by potrace 1.14, written by Peter Selinger 2001-2017
</metadata>
<g transform="translate(0.000000,500.000000) scale(0.100000,-0.100000)"
fill="#000000" stroke="none">
<path d="M162 4993 c21 -5 35 -84 22 -122 -7 -19 -17 -27 -39 -29 -17 -2 -41
-7 -55 -12 -62 -22 -78 -21 -83 2 -2 13 -4 -274 -4 -637 0 -363 2 -643 4 -622
5 49 23 48 23 -2 0 -22 5 -43 10 -46 6 -4 8 -10 5 -15 -9 -14 15 -192 31 -227
8 -17 14 -34 14 -38 0 -4 6 -21 14 -38 8 -18 21 -63 30 -101 9 -38 22 -77 29
-85 21 -24 44 -81 53 -125 4 -22 12 -50 19 -63 21 -40 8 -67 -46 -92 -70 -34
-93 -76 -85 -161 3 -36 12 -79 20 -95 9 -17 16 -42 16 -56 0 -14 11 -38 25
-53 14 -15 25 -34 25 -43 0 -9 16 -35 35 -59 19 -23 38 -58 41 -76 4 -18 12
-40 18 -48 21 -27 56 -98 56 -112 0 -8 12 -25 26 -39 14 -13 34 -40 45 -59 10
-19 28 -45 41 -56 25 -23 108 -64 130 -64 7 0 36 -6 65 -12 48 -11 55 -16 73
-56 11 -23 23 -69 27 -102 3 -33 12 -65 19 -71 8 -6 14 -22 14 -35 0 -12 3
-25 8 -27 4 -3 6 -40 4 -84 -3 -92 -3 -103 0 -123 2 -8 -1 -16 -7 -18 -5 -1
-11 6 -13 17 -2 12 -14 29 -28 40 -13 10 -26 32 -28 48 -4 42 -29 87 -49 91
-13 3 -25 -13 -47 -60 -23 -49 -53 -86 -132 -163 -104 -101 -128 -128 -147
-162 -5 -11 -29 -33 -53 -49 -24 -16 -45 -31 -48 -34 -3 -3 -23 -18 -45 -34
-58 -42 -93 -79 -105 -110 -9 -25 -14 -28 -50 -24 l-40 4 0 -428 0 -428 489 0
490 0 -11 33 c-20 64 -29 139 -18 152 8 9 7 14 -2 17 -7 3 -11 19 -10 41 2 31
-1 37 -17 37 -21 0 -31 18 -31 58 0 15 -7 36 -15 46 -17 22 -20 112 -5 121 6
3 10 1 10 -5 0 -6 5 -8 10 -5 6 3 10 1 10 -6 0 -7 8 -22 18 -33 27 -32 45 -93
38 -132 -4 -19 -3 -34 2 -34 16 0 49 -35 53 -54 4 -18 46 -47 106 -75 12 -6
27 -20 34 -33 7 -13 37 -46 68 -75 l56 -53 698 0 c624 0 698 2 704 16 3 8 1
20 -6 27 -21 21 -12 55 20 78 l32 22 -34 18 c-19 9 -37 15 -41 12 -5 -2 -8 -1
-8 3 0 4 19 25 42 46 l42 38 -32 11 c-36 12 -36 12 -21 42 17 32 63 56 73 38
6 -9 6 -76 3 -233 l-3 -118 37 0 c32 0 37 4 42 27 3 15 1 38 -5 52 -6 17 -5
47 2 88 22 117 47 63 35 -78 l-7 -89 95 0 c111 0 98 -15 142 169 24 102 26
126 20 210 -12 157 -22 218 -41 246 -8 11 -14 31 -14 45 0 14 -7 34 -15 44 -8
11 -15 27 -15 37 0 9 -9 19 -21 22 -15 4 -19 2 -15 -9 3 -7 -3 -18 -12 -23
-21 -11 -72 -110 -72 -139 0 -32 -24 -45 -62 -33 -18 6 -42 11 -53 11 -39 0
-85 7 -93 14 -4 4 -7 20 -8 34 0 15 -2 33 -5 41 -2 9 11 23 33 35 66 37 46 52
-77 60 -201 13 -265 20 -265 29 0 5 13 7 30 4 29 -6 50 6 30 18 -15 9 -12 25
4 19 19 -7 30 14 17 30 -6 7 -10 24 -9 37 3 20 -1 24 -23 21 -20 -2 -28 3 -32
18 -3 13 -17 22 -37 26 -20 4 -35 15 -40 29 -5 12 -15 25 -23 28 -9 3 -17 16
-19 29 -2 15 -11 24 -24 26 -17 2 -24 13 -30 50 -13 72 -12 76 21 82 20 3 31
12 33 25 7 41 11 48 25 36 11 -8 18 -1 35 33 12 24 22 51 22 60 0 9 7 16 15
16 22 0 14 99 -9 116 -17 12 -16 13 3 24 12 6 21 17 21 25 0 8 5 15 10 15 23
0 50 41 50 76 0 21 8 47 20 61 11 14 17 29 15 33 -6 9 47 50 63 50 13 0 24 33
17 51 -3 8 -23 26 -45 39 -22 14 -60 48 -85 76 -36 42 -51 52 -87 58 -23 4
-50 14 -60 23 -10 9 -40 18 -68 21 -46 4 -83 22 -46 22 8 0 18 5 21 10 10 16
-18 69 -38 72 -10 2 -16 6 -15 9 5 11 -34 49 -44 43 -5 -3 -15 2 -22 12 -9 12
-15 14 -20 6 -9 -15 1 -32 20 -32 8 0 14 -4 14 -10 0 -5 -20 -10 -45 -10 -25
0 -45 -4 -45 -10 0 -5 7 -10 16 -10 12 0 14 -5 9 -17 -18 -42 -17 -61 4 -75
17 -12 19 -17 9 -26 -17 -14 -68 -3 -68 15 0 8 -11 24 -25 37 -22 21 -23 24
-10 50 8 16 15 37 15 47 0 11 5 19 11 19 6 0 8 8 5 18 -3 9 -2 22 2 28 11 16
41 24 47 14 11 -18 33 -10 41 13 4 12 7 58 5 103 l-2 81 53 -5 c54 -5 108 -25
108 -41 0 -5 9 -11 20 -14 16 -4 25 3 39 30 17 34 17 37 0 72 -24 50 -70 65
-136 45 -68 -21 -81 -18 -125 26 -30 31 -38 45 -32 58 14 29 8 205 -11 284 -3
13 -9 68 -15 123 -11 124 -17 153 -35 178 -7 10 -11 26 -8 33 3 8 -3 26 -13
42 -53 78 -59 93 -43 103 11 7 11 9 -3 9 -29 0 -21 20 12 31 24 9 30 17 30 40
0 28 13 39 24 20 11 -17 88 -20 113 -4 18 12 37 14 86 9 34 -4 69 -11 76 -15
19 -12 24 -81 5 -81 -18 0 -18 -34 0 -50 11 -8 13 -24 9 -60 -5 -46 -4 -51 31
-84 20 -20 36 -42 36 -50 0 -8 12 -24 28 -35 15 -12 32 -25 39 -31 7 -5 19
-10 27 -10 7 0 16 -6 19 -14 8 -19 44 -9 50 13 3 12 18 20 42 24 20 3 47 17
60 31 13 14 25 23 27 20 3 -2 18 8 33 22 42 39 85 54 139 49 41 -4 51 -1 66
18 18 21 18 23 -3 45 -11 12 -27 20 -34 18 -7 -3 -33 8 -57 24 -24 17 -54 30
-65 30 -12 0 -33 11 -47 25 -14 14 -31 25 -39 25 -10 0 -15 11 -15 35 0 30 4
35 28 41 15 3 41 9 57 14 17 4 59 9 94 10 83 2 162 17 179 34 11 11 0 20 -70
55 -46 22 -89 41 -95 41 -7 0 -19 10 -28 22 -15 22 -22 23 -179 25 -122 2
-170 7 -192 18 -16 8 -37 15 -46 15 -22 0 -147 47 -164 61 -9 7 -10 18 -4 33
10 26 -2 52 -20 41 -7 -4 -9 -17 -6 -31 4 -13 2 -24 -3 -24 -5 0 -11 12 -13
28 -2 18 -9 28 -24 30 -17 2 -22 14 -30 63 -6 36 -7 62 -1 66 5 3 7 16 4 29
-3 16 0 24 10 24 9 0 13 -8 11 -22 -3 -20 1 -23 27 -20 47 4 60 11 47 24 -8 8
-7 15 4 26 10 10 13 24 9 41 -8 31 -1 27 -52 35 -35 5 -43 3 -43 -9 0 -18 -41
-20 -72 -4 -16 8 -22 8 -29 -2 -4 -7 -21 -15 -37 -16 -34 -4 -91 15 -76 25 7
5 6 15 -3 32 l-13 25 0 -29 c0 -28 -1 -28 -18 -13 -20 18 -48 22 -56 8 -6 -9
-56 -3 -56 8 0 3 -35 7 -78 9 -84 2 -168 24 -165 41 2 7 -13 11 -37 11 -28 0
-42 5 -49 19 -13 23 -4 33 19 21 21 -11 48 -12 153 -6 42 3 77 2 77 -3 0 -18
38 -18 51 0 7 11 21 19 30 19 11 0 22 13 29 36 16 49 102 134 129 129 35 -7
87 22 109 60 15 25 28 35 46 35 14 0 28 5 31 10 3 6 14 10 23 10 10 0 35 9 56
21 28 15 49 19 72 15 20 -4 37 -2 46 6 7 7 35 14 63 16 27 1 54 7 59 12 6 6
21 10 35 10 14 0 43 9 65 19 26 12 72 21 126 24 75 5 90 3 132 -18 27 -13 60
-36 75 -50 15 -14 31 -25 35 -25 5 0 8 -6 8 -14 0 -7 8 -16 19 -19 10 -2 32
-32 50 -68 17 -35 42 -82 55 -104 13 -22 27 -61 30 -87 4 -26 11 -50 16 -53 6
-3 10 -17 10 -31 0 -14 7 -32 15 -41 8 -8 14 -27 13 -41 -1 -15 5 -38 14 -52
9 -14 19 -44 23 -68 4 -24 18 -71 31 -105 13 -33 24 -71 24 -83 0 -12 7 -27
15 -34 8 -7 15 -21 15 -31 0 -18 62 -143 81 -164 5 -5 9 -24 9 -42 0 -20 6
-36 14 -39 8 -3 19 -19 25 -36 15 -42 52 -36 66 12 5 19 14 41 18 48 5 6 5 18
0 25 -19 30 -42 172 -43 258 l0 75 35 14 c19 8 35 19 35 26 0 20 19 27 35 14
12 -10 15 -9 16 4 1 9 2 20 3 26 0 5 11 16 23 25 23 16 48 78 38 94 -3 6 -6
32 -7 58 0 26 -4 53 -8 58 -4 6 -11 40 -15 77 -5 48 -13 74 -29 93 -28 33 -51
104 -66 205 -6 41 -21 98 -32 125 -29 70 -47 152 -37 162 4 4 10 39 11 76 l3
67 -1590 -1 c-875 -1 -1582 -3 -1573 -6z m1258 -858 c0 -8 -7 -15 -15 -15 -16
0 -20 12 -8 23 11 12 23 8 23 -8z m660 -65 c0 -5 -4 -10 -10 -10 -5 0 -10 5
-10 10 0 6 5 10 10 10 6 0 10 -4 10 -10z m-150 -10 c0 -5 -4 -10 -10 -10 -5 0
-10 5 -10 10 0 6 5 10 10 10 6 0 10 -4 10 -10z m-77 -7 c-7 -2 -13 -13 -13
-24 0 -23 -25 -25 -34 -3 -9 23 2 34 32 33 15 0 21 -3 15 -6z m-352 -44 c36
-34 36 -34 38 -90 1 -25 6 -39 19 -43 9 -3 32 -15 50 -26 18 -11 38 -18 43
-14 5 3 17 0 26 -8 14 -11 15 -10 9 8 -4 15 -2 23 8 27 18 7 30 -8 20 -25 -4
-6 1 -17 11 -25 11 -7 16 -13 12 -13 -4 0 3 -12 15 -26 15 -17 22 -35 20 -55
-2 -17 1 -35 6 -42 6 -7 16 -32 23 -55 9 -30 20 -47 36 -53 38 -14 27 -30 -19
-27 -35 3 -42 7 -45 28 -4 28 -21 42 -45 34 -11 -3 -23 4 -33 20 -11 16 -30
27 -55 31 -25 4 -41 13 -45 24 -3 10 -28 31 -57 46 -65 36 -83 54 -86 89 -1
16 -6 34 -11 40 -4 6 -9 19 -10 29 0 9 -2 23 -3 30 -1 7 2 26 6 42 5 21 4 26
-3 15 -14 -21 -19 -10 -13 33 3 31 8 37 27 37 13 0 38 -14 56 -31z m579 16 c0
-8 -2 -15 -4 -15 -2 0 -6 7 -10 15 -3 8 -1 15 4 15 6 0 10 -7 10 -15z m-345
-26 c8 -13 -23 -38 -47 -39 -22 0 -23 8 -1 32 18 20 38 23 48 7z m365 -2343
c0 -7 -8 -16 -17 -19 -10 -4 -29 -15 -43 -26 -29 -24 -71 -31 -77 -15 -2 6 8
26 22 43 23 26 34 31 71 31 31 0 44 -4 44 -14z m-140 -997 c0 -10 -4 -19 -10
-19 -5 0 -10 12 -10 26 0 14 4 23 10 19 6 -3 10 -15 10 -26z m-1093 -121 c-3
-8 -6 -5 -6 6 -1 11 2 17 5 13 3 -3 4 -12 1 -19z m1230 -5 c2 -6 -9 -13 -25
-15 -45 -6 -59 3 -26 17 32 15 46 14 51 -2z m606 0 c45 -25 48 -32 41 -83 -6
-45 -24 -80 -24 -47 0 10 -8 17 -20 17 -21 0 -28 24 -10 35 6 3 10 10 10 15 0
9 -56 31 -63 24 -2 -3 -7 2 -10 10 -4 9 3 22 16 31 26 18 22 19 60 -2z m152
-283 c-3 -5 -10 -10 -16 -10 -5 0 -9 5 -9 10 0 6 7 10 16 10 8 0 12 -4 9 -10z"/>
<path d="M2072 4328 c-21 -21 -15 -48 11 -48 18 0 22 5 21 27 -1 30 -14 39
-32 21z"/>
<path d="M2130 4324 c0 -8 5 -12 10 -9 6 4 8 11 5 16 -9 14 -15 11 -15 -7z"/>
<path d="M2050 4255 c-8 -10 -6 -15 9 -20 12 -3 21 -13 21 -21 0 -8 7 -14 16
-14 12 0 15 6 10 23 -3 12 -6 25 -6 28 0 14 -40 16 -50 4z"/>
<path d="M1655 4190 c3 -5 10 -10 16 -10 5 0 9 5 9 10 0 6 -7 10 -16 10 -8 0
-12 -4 -9 -10z"/>
<path d="M3286 3372 c-3 -6 1 -12 9 -16 9 -3 15 -18 15 -35 0 -20 8 -34 25
-45 25 -16 25 -16 25 12 0 16 -3 32 -7 36 -5 4 -8 18 -8 29 0 16 -7 23 -27 25
-14 2 -29 -1 -32 -6z"/>
<path d="M3506 3204 c-22 -21 -20 -54 5 -80 22 -23 38 -78 39 -130 0 -17 6
-37 13 -43 24 -19 42 33 42 119 0 69 -3 81 -28 113 -31 40 -47 45 -71 21z"/>
<path d="M3354 2904 c-6 -23 12 -136 25 -159 3 -5 7 -19 8 -30 2 -11 7 -21 12
-23 5 -2 7 -12 4 -22 -5 -18 0 -20 36 -20 33 0 41 4 41 18 0 10 3 22 7 26 18
17 3 96 -19 96 -4 0 -8 9 -8 20 0 11 -7 20 -15 20 -8 0 -15 7 -15 15 0 9 -7
18 -15 21 -8 4 -13 10 -10 15 8 11 -17 49 -32 49 -7 0 -16 -12 -19 -26z"/>
<path d="M2000 2200 c0 -6 7 -10 15 -10 8 0 15 2 15 4 0 2 -7 6 -15 10 -8 3
-15 1 -15 -4z"/>
<path d="M3271 1009 c0 -8 9 -27 20 -44 24 -38 39 -73 39 -90 0 -8 9 -20 19
-27 11 -8 25 -27 32 -43 7 -17 18 -37 25 -45 19 -24 73 -158 95 -235 42 -143
54 -237 58 -452 l1 -73 720 0 720 0 0 233 0 232 -90 47 c-49 26 -109 51 -132
54 -24 4 -78 27 -121 50 -43 24 -106 51 -140 60 -34 10 -78 25 -97 34 -19 10
-62 21 -95 25 -33 4 -88 20 -122 36 -34 16 -75 29 -90 29 -16 0 -39 7 -52 16
-13 9 -53 22 -90 29 -36 7 -82 18 -101 25 -80 28 -96 33 -125 37 -16 3 -35 9
-40 14 -15 12 -314 86 -379 94 -44 6 -56 4 -55 -6z"/>
<path d="M2450 805 c0 -17 2 -18 24 -9 18 7 12 24 -10 24 -8 0 -14 -7 -14 -15z"/>
</g>
</svg>
