<?xml version="1.0" encoding="UTF-8" standalone="no"?>
<svg
   xmlns:dc="http://purl.org/dc/elements/1.1/"
   xmlns:cc="http://creativecommons.org/ns#"
   xmlns:rdf="http://www.w3.org/1999/02/22-rdf-syntax-ns#"
   xmlns:svg="http://www.w3.org/2000/svg"
   xmlns="http://www.w3.org/2000/svg"
   xmlns:sodipodi="http://sodipodi.sourceforge.net/DTD/sodipodi-0.dtd"
   xmlns:inkscape="http://www.inkscape.org/namespaces/inkscape"
   width="51.378551mm"
   height="45.710823mm"
   viewBox="0 0 51.378551 45.710823"
   version="1.1"
   id="svg8"
   inkscape:version="1.0.1 (c497b03c, 2020-09-10)"
   sodipodi:docname="logo-circle.svg">
  <defs
     id="defs2">
    <rect
       x="10.583333"
       y="44.601189"
       width="281.21429"
       height="26.458332"
       id="rect2337" />
    <rect
       x="28.726191"
       y="46.113094"
       width="291.04166"
       height="30.994041"
       id="rect2276" />
    <rect
       x="37.041668"
       y="48.380951"
       width="157.2381"
       height="118.68452"
       id="rect2270" />
  </defs>
  <sodipodi:namedview
     id="base"
     pagecolor="#ffffff"
     bordercolor="#666666"
     borderopacity="1.0"
     inkscape:pageopacity="0.0"
     inkscape:pageshadow="2"
     inkscape:zoom="0.80626592"
     inkscape:cx="277.67642"
     inkscape:cy="65.041513"
     inkscape:document-units="mm"
     inkscape:current-layer="text2274"
     inkscape:document-rotation="0"
     showgrid="false"
     scale-x="1"
     inkscape:window-width="1161"
     inkscape:window-height="723"
     inkscape:window-x="498"
     inkscape:window-y="23"
     inkscape:window-maximized="0"
     fit-margin-top="0"
     fit-margin-left="0"
     fit-margin-right="0"
     fit-margin-bottom="0" />
  <metadata
     id="metadata5">
    <rdf:RDF>
      <cc:Work
         rdf:about="">
        <dc:format>image/svg+xml</dc:format>
        <dc:type
           rdf:resource="http://purl.org/dc/dcmitype/StillImage" />
        <dc:title></dc:title>
      </cc:Work>
    </rdf:RDF>
  </metadata>
  <g
     inkscape:label="Layer 1"
     inkscape:groupmode="layer"
     id="layer1"
     transform="translate(-62.959534,-53.517442)">
    <text
       xml:space="preserve"
       id="text2268"
       style="font-style:normal;font-weight:normal;font-size:10.58329999999999949px;line-height:1.25;font-family:sans-serif;white-space:pre;shape-inside:url(#rect2270);fill:#000000;fill-opacity:1;stroke:none;" />
    <g
       aria-label="Collaborative Projects Co"
       id="text2274"
       style="font-style:normal;font-variant:normal;font-weight:bold;font-stretch:normal;font-size:19.7556px;line-height:1.25;font-family:sans-serif;-inkscape-font-specification:'sans-serif Bold';white-space:pre;shape-inside:url(#rect2276);display:inline;fill:#000000;fill-opacity:1;stroke:none">
      <g
         id="text2333"
         style="font-style:normal;font-weight:normal;font-size:10.5833px;line-height:1.25;font-family:sans-serif;fill:#000000;fill-opacity:1;stroke:none;stroke-width:0.264583"
         transform="translate(-38.394591,-46.598563)" />
      <g
         aria-label="collaborative projects co."
         transform="rotate(10.462129,146.25984,120.71553)"
         id="text2335"
         style="font-style:normal;font-variant:normal;font-weight:bold;font-stretch:normal;font-size:7.76111px;line-height:1.25;font-family:sans-serif;-inkscape-font-specification:'sans-serif, Bold';font-variant-ligatures:normal;font-variant-caps:normal;font-variant-numeric:normal;font-variant-east-asian:normal;white-space:pre;fill:#ffffff;fill-opacity:1;stroke:none">
        <path
           d="m 74.93298,107.6109 q 0.526963,0.18066 0.921293,0.45607 0.390744,0.27417 0.623658,0.64647 0.22933,0.37107 0.268566,0.8292 0.03924,0.45813 -0.143883,0.99227 -0.192952,0.56281 -0.519465,0.90756 -0.330099,0.34353 -0.759243,0.49687 -0.413474,0.14268 -0.88062,0.11473 -0.467146,-0.0279 -0.925999,-0.18527 -0.41225,-0.14133 -0.729249,-0.35016 -0.316999,-0.20883 -0.568962,-0.45546 l 0.3773,-1.10053 0.182824,0.0627 q 0.05316,0.0903 0.131207,0.21324 0.07446,0.12167 0.200342,0.25697 0.119938,0.12926 0.278387,0.23966 0.157219,0.114 0.39023,0.19388 0.516209,0.17697 0.90889,-0.057 0.387866,-0.23159 0.580818,-0.7944 0.199097,-0.58073 0.01913,-0.97895 -0.183548,-0.39944 -0.706926,-0.57887 -0.243766,-0.0836 -0.455779,-0.0962 -0.216827,-0.0102 -0.371688,0.0208 -0.146463,0.0299 -0.266705,0.0768 -0.120242,0.0469 -0.224916,0.0952 l -0.182824,-0.0627 0.3773,-1.10053 q 0.353866,-0.0389 0.715518,-0.007 0.359296,0.027 0.760792,0.16468 z"
           style="font-style:normal;font-variant:normal;font-weight:bold;font-stretch:normal;font-size:7.76111px;font-family:sans-serif;-inkscape-font-specification:'sans-serif, Bold';font-variant-ligatures:normal;font-variant-caps:normal;font-variant-numeric:normal;font-variant-east-asian:normal"
           id="path3392" />
        <path
           d="m 67.898781,106.23995 q 0.575505,-0.8779 1.421356,-1.04841 0.840603,-0.16942 1.766041,0.43725 0.925439,0.60667 1.108522,1.44717 0.177837,0.84159 -0.397668,1.71949 -0.579661,0.88423 -1.423434,1.05158 -0.846942,0.16526 -1.766041,-0.43725 -0.931777,-0.61083 -1.106445,-1.45034 -0.177837,-0.84159 0.397669,-1.71949 z m 1.971199,0.0552 q -0.200264,0.0636 -0.378801,0.2184 -0.183783,0.15594 -0.40609,0.49505 -0.205687,0.31376 -0.287841,0.5635 -0.08215,0.24975 -0.06384,0.443 0.01623,0.19643 0.123533,0.3438 0.1073,0.14737 0.272104,0.25541 0.164804,0.10804 0.323832,0.14885 0.15586,0.0387 0.360385,-0.0175 0.185615,-0.0551 0.390281,-0.22901 0.201496,-0.17603 0.415492,-0.50247 0.191143,-0.29158 0.278544,-0.54241 0.08532,-0.24767 0.06592,-0.44617 -0.02039,-0.19009 -0.122443,-0.33855 -0.105221,-0.15054 -0.285872,-0.26897 -0.155296,-0.1018 -0.327988,-0.14251 -0.177939,-0.0396 -0.357215,0.0196 z"
           style="font-style:normal;font-variant:normal;font-weight:bold;font-stretch:normal;font-size:7.76111px;font-family:sans-serif;-inkscape-font-specification:'sans-serif, Bold';font-variant-ligatures:normal;font-variant-caps:normal;font-variant-numeric:normal;font-variant-east-asian:normal"
           id="path3394" />
        <path
           d="m 67.429655,102.74492 0.967586,0.96175 -4.156928,4.18212 -0.967586,-0.96175 z"
           style="font-style:normal;font-variant:normal;font-weight:bold;font-stretch:normal;font-size:7.76111px;font-family:sans-serif;-inkscape-font-specification:'sans-serif, Bold';font-variant-ligatures:normal;font-variant-caps:normal;font-variant-numeric:normal;font-variant-east-asian:normal"
           id="path3396" />
        <path
           d="m 65.746772,100.69483 0.831054,1.08192 -4.676292,3.592 -0.831055,-1.08192 z"
           style="font-style:normal;font-variant:normal;font-weight:bold;font-stretch:normal;font-size:7.76111px;font-family:sans-serif;-inkscape-font-specification:'sans-serif, Bold';font-variant-ligatures:normal;font-variant-caps:normal;font-variant-numeric:normal;font-variant-east-asian:normal"
           id="path3398" />
        <path
           d="m 62.820886,97.841725 -0.795189,0.392468 q 0.142826,0.238008 0.32277,0.50841 0.176545,0.272078 0.297918,0.39812 0.14834,0.154992 0.309121,0.198193 0.155706,0.04148 0.335813,-0.04741 0.118938,-0.0587 0.183636,-0.115991 0.0647,-0.05729 0.09241,-0.17239 0.02939,-0.111704 0.0097,-0.23722 -0.02309,-0.123838 -0.137138,-0.354919 -0.09057,-0.183505 -0.257577,-0.33351 -0.168686,-0.153403 -0.361465,-0.235749 z M 63.41218,97.54989 q 0.123401,0.06165 0.300866,0.155781 0.177466,0.09413 0.302369,0.193074 0.17045,0.139854 0.303432,0.315104 0.13638,0.173574 0.25043,0.404654 0.268354,0.543719 0.113067,1.076773 -0.155286,0.533054 -0.678616,0.791344 -0.417984,0.2063 -0.775293,0.15022 -0.35731,-0.0561 -0.67963,-0.32383 -0.320642,-0.26435 -0.633436,-0.735423 -0.312795,-0.471073 -0.610056,-0.996298 l -0.02039,0.01006 q -0.316037,0.155981 -0.307507,0.47295 0.0051,0.318646 0.253359,0.821586 0.149272,0.302445 0.427415,0.591995 0.274744,0.29123 0.406311,0.41224 l 0.05535,0.11214 -0.920924,0.45453 q -0.146574,-0.16854 -0.429223,-0.56997 -0.287723,-0.40316 -0.504084,-0.84153 -0.514905,-1.043262 -0.420173,-1.664758 0.08966,-0.623218 0.776102,-0.962015 l 2.596258,-1.281392 0.598765,1.213173 z"
           style="font-style:normal;font-variant:normal;font-weight:bold;font-stretch:normal;font-size:7.76111px;font-family:sans-serif;-inkscape-font-specification:'sans-serif, Bold';font-variant-ligatures:normal;font-variant-caps:normal;font-variant-numeric:normal;font-variant-east-asian:normal"
           id="path3400" />
        <path
           d="m 59.807148,90.988856 q 0.985907,-0.191035 1.713186,0.235476 0.726557,0.422791 0.884432,1.23756 0.06776,0.349719 0.04454,0.628285 -0.02322,0.278567 -0.118464,0.544066 l 0.219156,0.01544 0.248706,1.28354 -5.788952,1.121701 -0.259519,-1.339346 2.046223,-0.396488 q -0.30538,-0.261216 -0.519913,-0.551614 -0.215254,-0.294119 -0.296714,-0.714525 -0.15355,-0.792447 0.336491,-1.33131 0.48632,-0.538142 1.49083,-0.732782 z m 0.293492,1.375224 q -0.558061,0.108134 -0.822649,0.356266 -0.264587,0.248133 -0.170151,0.735506 0.03676,0.189741 0.13522,0.379108 0.09473,0.190089 0.237949,0.351483 l 2.098309,-0.40658 q 0.02397,-0.155189 0.01734,-0.289007 -0.0066,-0.133819 -0.04195,-0.316119 -0.103087,-0.532018 -0.466064,-0.731892 -0.362976,-0.199874 -0.988004,-0.07877 z"
           style="font-style:normal;font-variant:normal;font-weight:bold;font-stretch:normal;font-size:7.76111px;font-family:sans-serif;-inkscape-font-specification:'sans-serif, Bold';font-variant-ligatures:normal;font-variant-caps:normal;font-variant-numeric:normal;font-variant-east-asian:normal"
           id="path3402" />
        <path
           d="m 60.173351,85.056787 q 1.04639,0.08355 1.601941,0.743776 0.552075,0.656149 0.464001,1.759203 -0.08807,1.103054 -0.737571,1.667064 -0.652974,0.559932 -1.699364,0.476383 -1.053946,-0.08415 -1.605719,-0.744078 -0.551471,-0.663704 -0.464001,-1.759203 0.08868,-1.110609 0.741349,-1.666763 0.652974,-0.559931 1.699364,-0.476382 z m 0.897662,1.755811 q -0.151879,-0.145185 -0.373407,-0.227501 -0.225003,-0.0864 -0.629204,-0.118669 -0.373981,-0.02986 -0.632508,0.01793 -0.258527,0.04779 -0.419282,0.156605 -0.164533,0.108517 -0.242325,0.27338 -0.07779,0.164864 -0.09348,0.361298 -0.01568,0.196434 0.02484,0.355538 0.04082,0.155326 0.18832,0.307764 0.137372,0.136424 0.388216,0.232486 0.251144,0.09228 0.640235,0.123351 0.347538,0.02775 0.609541,-0.01596 0.258226,-0.04401 0.42306,-0.156304 0.156977,-0.109119 0.238245,-0.269904 0.08157,-0.164562 0.09876,-0.379884 0.01478,-0.185101 -0.03239,-0.356141 -0.05065,-0.175119 -0.188621,-0.303987 z"
           style="font-style:normal;font-variant:normal;font-weight:bold;font-stretch:normal;font-size:7.76111px;font-family:sans-serif;-inkscape-font-specification:'sans-serif, Bold';font-variant-ligatures:normal;font-variant-caps:normal;font-variant-numeric:normal;font-variant-east-asian:normal"
           id="path3404" />
        <path
           d="m 60.718686,80.433566 -0.0367,0.115581 q -0.05527,0.0739 -0.128209,0.253519 -0.07294,0.17962 -0.111929,0.302424 -0.08831,0.278117 -0.119852,0.502688 -0.03154,0.224571 -0.02284,0.497704 l 2.716152,0.862426 -0.412863,1.300286 -4.056169,-1.287905 0.412863,-1.300285 0.595965,0.189229 q -0.23194,-0.546795 -0.250211,-0.902488 -0.02188,-0.356841 0.06298,-0.624121 0.02179,-0.06863 0.05293,-0.154166 0.03114,-0.08554 0.059,-0.148259 z"
           style="font-style:normal;font-variant:normal;font-weight:bold;font-stretch:normal;font-size:7.76111px;font-family:sans-serif;-inkscape-font-specification:'sans-serif, Bold';font-variant-ligatures:normal;font-variant-caps:normal;font-variant-numeric:normal;font-variant-east-asian:normal"
           id="path3406" />
        <path
           d="m 64.196946,77.81135 -0.763715,-0.450662 q -0.121008,0.249809 -0.248809,0.548412 -0.131064,0.296677 -0.170112,0.467244 -0.04852,0.208982 0.0033,0.367186 0.05052,0.153013 0.223493,0.255086 0.114231,0.06741 0.197589,0.09019 0.08336,0.02279 0.194854,-0.01702 0.10957,-0.03655 0.203837,-0.121729 0.091,-0.08711 0.221964,-0.309041 0.103998,-0.176242 0.138121,-0.398117 0.03605,-0.22514 -5.59e-4,-0.431549 z m 0.567891,0.335107 q 0.01595,0.137018 0.03431,0.337062 0.01836,0.200044 0.0039,0.358732 -0.02374,0.2192 -0.09762,0.426418 -0.07061,0.209144 -0.201573,0.431079 -0.308144,0.522198 -0.839252,0.684018 -0.531108,0.161819 -1.033724,-0.13477 -0.40144,-0.236886 -0.550087,-0.566612 -0.148647,-0.329726 -0.100999,-0.74603 0.04572,-0.413039 0.268744,-0.932665 0.223023,-0.519626 0.499868,-1.055893 l -0.01958,-0.01156 q -0.303528,-0.179109 -0.564127,0.0015 -0.263863,0.178712 -0.548897,0.661745 -0.171405,0.290473 -0.261482,0.68174 -0.09334,0.38934 -0.122596,0.565685 l -0.06356,0.107704 -0.884474,-0.52192 q 0.06082,-0.214922 0.242062,-0.671198 0.179902,-0.461467 0.428344,-0.882489 0.591252,-1.001969 1.16323,-1.262877 0.57064,-0.266097 1.229916,0.122935 l 2.493497,1.47139 -0.687547,1.165155 z"
           style="font-style:normal;font-variant:normal;font-weight:bold;font-stretch:normal;font-size:7.76111px;font-family:sans-serif;-inkscape-font-specification:'sans-serif, Bold';font-variant-ligatures:normal;font-variant-caps:normal;font-variant-numeric:normal;font-variant-east-asian:normal"
           id="path3408" />
        <path
           d="m 68.500617,74.238222 q -0.108303,0.199531 -0.254097,0.400376 -0.143023,0.203429 -0.385933,0.463985 -0.542671,0.582093 -1.044448,0.647944 -0.499192,0.06308 -1.070198,-0.469256 l -1.455233,-1.356678 -0.382454,0.410237 -0.676337,-0.630532 0.382454,-0.410237 -0.889772,-0.829512 0.930294,-0.997874 0.889771,0.829511 0.870858,-0.934121 0.676337,0.630532 -0.870858,0.934122 1.103206,1.02849 q 0.16354,0.152465 0.288087,0.263396 0.124546,0.11093 0.260324,0.159798 0.133194,0.05164 0.281848,0.0089 0.148467,-0.0481 0.324189,-0.236592 0.07236,-0.07761 0.15538,-0.233356 0.08561,-0.158516 0.104405,-0.234251 l 0.07752,-0.08316 z"
           style="font-style:normal;font-variant:normal;font-weight:bold;font-stretch:normal;font-size:7.76111px;font-family:sans-serif;-inkscape-font-specification:'sans-serif, Bold';font-variant-ligatures:normal;font-variant-caps:normal;font-variant-numeric:normal;font-variant-east-asian:normal"
           id="path3410" />
        <path
           d="m 70.246899,72.919676 -1.07145,0.844508 -2.634396,-3.342329 1.07145,-0.844508 z m -2.97997,-3.841987 -1.130975,0.891425 -0.640419,-0.812516 1.130975,-0.891425 z"
           style="font-style:normal;font-variant:normal;font-weight:bold;font-stretch:normal;font-size:7.76111px;font-family:sans-serif;-inkscape-font-specification:'sans-serif, Bold';font-variant-ligatures:normal;font-variant-caps:normal;font-variant-numeric:normal;font-variant-east-asian:normal"
           id="path3412" />
        <path
           d="m 73.123098,66.373201 0.499151,4.533718 -1.373098,0.710779 -3.403523,-3.03028 1.282231,-0.663742 2.21992,2.14517 -0.479989,-3.045839 z"
           style="font-style:normal;font-variant:normal;font-weight:bold;font-stretch:normal;font-size:7.76111px;font-family:sans-serif;-inkscape-font-specification:'sans-serif, Bold';font-variant-ligatures:normal;font-variant-caps:normal;font-variant-numeric:normal;font-variant-east-asian:normal"
           id="path3414" />
        <path
           d="m 79.503107,67.175917 -3.044294,0.695064 q 0.140901,0.48093 0.539845,0.661943 0.402638,0.180169 1.067654,0.02834 0.421176,-0.09616 0.781907,-0.337895 0.36073,-0.241733 0.550146,-0.467674 l 0.147781,-0.03374 0.243778,1.06772 q -0.4094,0.283942 -0.789852,0.456322 -0.380452,0.17238 -0.864435,0.282882 -1.248752,0.285111 -2.041984,-0.124623 -0.793231,-0.409735 -1.030262,-1.447898 -0.234499,-1.02708 0.25692,-1.768994 0.494271,-0.746451 1.591547,-0.996978 1.012302,-0.231126 1.639397,0.166008 0.626252,0.393439 0.845568,1.354018 z m -1.500626,-0.477565 q -0.106402,-0.414952 -0.350293,-0.580833 -0.243891,-0.165882 -0.657679,-0.07141 -0.384231,0.08773 -0.586214,0.343747 -0.201984,0.256021 -0.131161,0.702419 z"
           style="font-style:normal;font-variant:normal;font-weight:bold;font-stretch:normal;font-size:7.76111px;font-family:sans-serif;-inkscape-font-specification:'sans-serif, Bold';font-variant-ligatures:normal;font-variant-caps:normal;font-variant-numeric:normal;font-variant-east-asian:normal"
           id="path3416" />
        <path
           d="m 88.319767,67.5604 q -0.09059,0.518907 -0.32541,0.916461 -0.231089,0.398206 -0.536903,0.62949 -0.31962,0.244261 -0.685405,0.33428 -0.365785,0.09002 -0.754032,0.02224 -0.358382,-0.06257 -0.594816,-0.184626 -0.237087,-0.118329 -0.474293,-0.302075 l -0.305006,1.747111 -1.343931,-0.23462 1.000392,-5.730375 1.343932,0.234619 -0.07625,0.436778 q 0.352865,-0.192294 0.700636,-0.289305 0.351504,-0.09636 0.773349,-0.02272 0.78396,0.136862 1.11664,0.787366 0.336413,0.651155 0.161099,1.655371 z m -1.389558,-0.215657 q 0.106882,-0.612236 -0.05395,-0.924985 -0.160829,-0.312749 -0.612539,-0.391607 -0.190391,-0.03324 -0.402408,-0.0087 -0.211365,0.0208 -0.413189,0.09713 L 85.0799,68.225807 q 0.125269,0.07573 0.275721,0.117379 0.150452,0.04165 0.299778,0.06772 0.533839,0.0932 0.849252,-0.171034 0.316065,-0.267964 0.425554,-0.895132 z"
           style="font-style:normal;font-variant:normal;font-weight:bold;font-stretch:normal;font-size:7.76111px;font-family:sans-serif;-inkscape-font-specification:'sans-serif, Bold';font-variant-ligatures:normal;font-variant-caps:normal;font-variant-numeric:normal;font-variant-east-asian:normal"
           id="path3418" />
        <path
           d="m 92.866607,68.613569 -0.111482,-0.04773 q -0.0682,-0.06217 -0.239903,-0.15217 -0.171707,-0.09 -0.290156,-0.140706 -0.268251,-0.114839 -0.488709,-0.167995 -0.220458,-0.05316 -0.493149,-0.07096 l -1.121548,2.619808 -1.254163,-0.536911 1.674864,-3.912293 1.254163,0.536911 -0.246084,0.574825 q 0.566696,-0.177867 0.922486,-0.161587 0.357281,0.0128 0.615081,0.123161 0.06619,0.02834 0.148312,0.06762 0.08212,0.03928 0.141845,0.07309 z"
           style="font-style:normal;font-variant:normal;font-weight:bold;font-stretch:normal;font-size:7.76111px;font-family:sans-serif;-inkscape-font-specification:'sans-serif, Bold';font-variant-ligatures:normal;font-variant-caps:normal;font-variant-numeric:normal;font-variant-east-asian:normal"
           id="path3420" />
        <path
           d="m 97.168427,72.584914 q -0.624791,0.843533 -1.479011,0.965372 -0.84892,0.121048 -1.738132,-0.537576 -0.889212,-0.658625 -1.023908,-1.50822 -0.129395,-0.850386 0.495397,-1.693919 0.629302,-0.849625 1.481266,-0.968418 0.855011,-0.116537 1.738132,0.537576 0.895303,0.663136 1.021653,1.511266 0.129395,0.850385 -0.495397,1.693919 z m -1.964813,-0.167862 q 0.203573,-0.052 0.390676,-0.196371 0.192404,-0.14516 0.433749,-0.471002 0.223301,-0.301479 0.319609,-0.546111 0.09631,-0.244632 0.08908,-0.43862 -0.005,-0.197033 -0.103662,-0.350303 -0.09869,-0.153269 -0.257044,-0.270559 -0.158353,-0.117289 -0.314786,-0.167134 -0.153388,-0.04759 -0.360796,-0.0031 -0.18846,0.04433 -0.402743,0.206297 -0.211238,0.164221 -0.443561,0.477881 -0.207512,0.280163 -0.309121,0.525585 -0.09935,0.242376 -0.09134,0.441664 0.0095,0.190943 0.102872,0.345002 0.09644,0.156315 0.270015,0.284882 0.149217,0.110523 0.319297,0.161044 0.175381,0.04973 0.357751,8.89e-4 z"
           style="font-style:normal;font-variant:normal;font-weight:bold;font-stretch:normal;font-size:7.76111px;font-family:sans-serif;-inkscape-font-specification:'sans-serif, Bold';font-variant-ligatures:normal;font-variant-caps:normal;font-variant-numeric:normal;font-variant-east-asian:normal"
           id="path3422" />
        <path
           d="m 97.690227,76.513978 q -0.541448,0.474626 -1.135789,0.405999 -0.59719,-0.06613 -1.056828,-0.590478 -0.244807,-0.279273 -0.4215,-0.532583 -0.177045,-0.247963 -0.243824,-0.375885 l 0.735229,-0.644492 0.06995,0.07979 q 0.04644,0.110473 0.138907,0.256196 0.09246,0.145724 0.157412,0.219817 0.259795,0.296372 0.531404,0.249783 0.271608,-0.04659 0.676269,-0.401308 l 2.211388,-1.938473 -0.532081,-0.606992 0.695333,-0.609519 1.431373,1.632893 z m 3.713193,-3.254935 -0.95675,-1.091445 0.77798,-0.681963 0.95675,1.091445 z"
           style="font-style:normal;font-variant:normal;font-weight:bold;font-stretch:normal;font-size:7.76111px;font-family:sans-serif;-inkscape-font-specification:'sans-serif, Bold';font-variant-ligatures:normal;font-variant-caps:normal;font-variant-numeric:normal;font-variant-east-asian:normal"
           id="path3424" />
        <path
           d="m 102.2658,80.190415 -1.53006,-2.722093 q -0.4212,0.271533 -0.48162,0.705436 -0.0586,0.437207 0.27568,1.031839 0.21168,0.3766 0.54581,0.653944 0.33412,0.277345 0.60451,0.39489 l 0.0743,0.132141 -0.95472,0.536631 q -0.3884,-0.312042 -0.66162,-0.62797 -0.27322,-0.315928 -0.516468,-0.748688 -0.627618,-1.116587 -0.459718,-1.993461 0.167899,-0.876874 1.096186,-1.398651 0.91838,-0.516207 1.76921,-0.255421 0.85599,0.262233 1.40748,1.243376 0.50878,0.905162 0.30584,1.619149 -0.19964,0.712131 -1.05855,1.194914 z m 0.0323,-1.574454 q 0.36773,-0.219735 0.45761,-0.500662 0.0899,-0.280927 -0.11808,-0.65092 -0.19311,-0.343565 -0.49591,-0.46463 -0.3028,-0.121065 -0.71077,0.07347 z"
           style="font-style:normal;font-variant:normal;font-weight:bold;font-stretch:normal;font-size:7.76111px;font-family:sans-serif;-inkscape-font-specification:'sans-serif, Bold';font-variant-ligatures:normal;font-variant-caps:normal;font-variant-numeric:normal;font-variant-east-asian:normal"
           id="path3426" />
        <path
           d="m 101.41092,84.211954 q -0.14746,-0.5372 -0.14194,-1.01815 0.007,-0.477295 0.18302,-0.879422 0.1775,-0.398472 0.53398,-0.688886 0.35649,-0.290413 0.901,-0.439879 0.57375,-0.15749 1.04251,-0.08182 0.46978,0.07933 0.83815,0.34761 0.35075,0.261331 0.59072,0.663105 0.23997,0.401774 0.36837,0.86954 0.11535,0.42026 0.1213,0.799817 0.006,0.379558 -0.056,0.726655 l -1.1219,0.307959 -0.0512,-0.186376 q 0.0447,-0.0948 0.10232,-0.228507 0.0586,-0.130053 0.0995,-0.310266 0.0393,-0.1719 0.0413,-0.36501 0.006,-0.194114 -0.0595,-0.431652 -0.14445,-0.526238 -0.5589,-0.718996 -0.40979,-0.190106 -0.98354,-0.03262 -0.59201,0.162506 -0.81974,0.535469 -0.22672,0.376616 -0.0803,0.910163 0.0682,0.248501 0.17719,0.430793 0.11365,0.184944 0.2265,0.295437 0.1072,0.104188 0.21368,0.177135 0.10647,0.07295 0.20529,0.132278 l 0.0512,0.186376 -1.12191,0.307959 q -0.23145,-0.270501 -0.40879,-0.587291 -0.17999,-0.312133 -0.29234,-0.721429 z"
           style="font-style:normal;font-variant:normal;font-weight:bold;font-stretch:normal;font-size:7.76111px;font-family:sans-serif;-inkscape-font-specification:'sans-serif, Bold';font-variant-ligatures:normal;font-variant-caps:normal;font-variant-numeric:normal;font-variant-east-asian:normal"
           id="path3428" />
        <path
           d="m 102.17298,89.201199 q -0.0707,-0.215747 -0.11656,-0.459652 -0.0497,-0.243664 -0.0723,-0.599169 -0.0505,-0.794214 0.24621,-1.204194 0.29694,-0.406198 1.07602,-0.455728 l 1.98554,-0.126229 -0.0356,-0.559732 0.9228,-0.05867 0.0356,0.559731 1.21401,-0.07718 0.0866,1.361509 -1.21401,0.07718 0.081,1.274524 -0.9228,0.05867 -0.081,-1.274523 -1.50523,0.09569 q -0.22313,0.01418 -0.3893,0.02855 -0.16617,0.01436 -0.29493,0.07951 -0.129,0.06136 -0.20001,0.198781 -0.067,0.140959 -0.0506,0.398133 0.007,0.105895 0.0629,0.273199 0.0564,0.171085 0.0986,0.236756 l 0.007,0.113459 z"
           style="font-style:normal;font-variant:normal;font-weight:bold;font-stretch:normal;font-size:7.76111px;font-family:sans-serif;-inkscape-font-specification:'sans-serif, Bold';font-variant-ligatures:normal;font-variant-caps:normal;font-variant-numeric:normal;font-variant-east-asian:normal"
           id="path3430" />
        <path
           d="m 102.92546,93.875215 q -0.65289,-0.09237 -0.97157,-0.734514 -0.31493,-0.641617 -0.17108,-1.658475 0.0796,-0.562836 0.24945,-1.005747 0.16983,-0.44291 0.33668,-0.702528 l 1.11067,0.157126 -0.0175,0.123824 q -0.0856,0.09122 -0.19051,0.210344 -0.10165,0.123403 -0.23372,0.353497 -0.11603,0.197916 -0.2175,0.455302 -0.0977,0.257915 -0.14072,0.561847 -0.0563,0.397738 0.003,0.601311 0.063,0.204104 0.23558,0.228523 0.15384,0.02176 0.23731,-0.08125 0.0872,-0.102481 0.19559,-0.408645 0.055,-0.145313 0.12916,-0.398909 0.0774,-0.249313 0.16338,-0.451476 0.23131,-0.55286 0.58577,-0.785936 0.35823,-0.232546 0.83101,-0.165661 0.60786,0.08599 0.92814,0.716887 0.32349,0.635175 0.18229,1.633271 -0.0669,0.472782 -0.22549,0.890489 -0.15538,0.421989 -0.2987,0.650491 l -1.06564,-0.150756 0.0165,-0.11632 q 0.24884,-0.270983 0.43109,-0.639416 0.18547,-0.36415 0.24121,-0.758135 0.0462,-0.326445 -0.012,-0.56432 -0.0587,-0.234122 -0.22384,-0.257478 -0.15009,-0.02123 -0.24321,0.06893 -0.0931,0.09016 -0.22501,0.45424 -0.0705,0.200534 -0.14519,0.431087 -0.0715,0.234835 -0.16551,0.466485 -0.21421,0.513178 -0.55048,0.725864 -0.33253,0.213216 -0.77904,0.150048 z"
           style="font-style:normal;font-variant:normal;font-weight:bold;font-stretch:normal;font-size:7.76111px;font-family:sans-serif;-inkscape-font-specification:'sans-serif, Bold';font-variant-ligatures:normal;font-variant-caps:normal;font-variant-numeric:normal;font-variant-east-asian:normal"
           id="path3432" />
        <path
           d="m 99.235298,98.957153 q 0.266961,-0.488939 0.604934,-0.831162 0.336158,-0.338898 0.742408,-0.505676 0.40444,-0.163451 0.86262,-0.124848 0.45819,0.0386 0.95378,0.309196 0.5222,0.285122 0.80694,0.665111 0.28293,0.383314 0.36167,0.832174 0.0709,0.431616 -0.0354,0.887352 -0.10635,0.45574 -0.33881,0.88148 -0.20884,0.3825 -0.46816,0.65974 -0.25931,0.27723 -0.5449,0.48398 l -1.02112,-0.55753 0.0926,-0.16963 q 0.098,-0.0372 0.23232,-0.0934 0.13249,-0.0529 0.28708,-0.15413 0.14764,-0.0964 0.28319,-0.23397 0.13888,-0.13574 0.25692,-0.35193 0.26151,-0.47896 0.0972,-0.905479 -0.16284,-0.421372 -0.68504,-0.706494 -0.53883,-0.294202 -0.96169,-0.183988 -0.42468,0.11354 -0.68982,0.599153 -0.123494,0.226175 -0.171669,0.433026 -0.04667,0.211992 -0.0422,0.369872 0.0048,0.14941 0.03073,0.27584 0.02596,0.12643 0.05585,0.23774 l -0.09262,0.16964 -1.021116,-0.55753 q 0.02132,-0.35537 0.113714,-0.706465 0.08725,-0.349587 0.290649,-0.722112 z"
           style="font-style:normal;font-variant:normal;font-weight:bold;font-stretch:normal;font-size:7.76111px;font-family:sans-serif;-inkscape-font-specification:'sans-serif, Bold';font-variant-ligatures:normal;font-variant-caps:normal;font-variant-numeric:normal;font-variant-east-asian:normal"
           id="path3434" />
        <path
           d="m 96.711184,105.66259 q -0.77054,-0.71287 -0.798706,-1.57527 -0.02796,-0.85705 0.723512,-1.66932 0.751471,-0.81227 1.610678,-0.85372 0.859416,-0.0361 1.629957,0.67678 0.776105,0.71801 0.801485,1.57784 0.0228,0.86262 -0.723509,1.66932 -0.756618,0.81783 -1.61346,0.85114 -0.859416,0.0361 -1.629957,-0.67677 z m 0.38066,-1.93488 q 0.02954,0.20802 0.152695,0.40972 0.123362,0.20706 0.421008,0.48243 0.275392,0.25477 0.508092,0.37713 0.2327,0.12236 0.426322,0.13628 0.196404,0.0165 0.359502,-0.0649 0.163099,-0.0814 0.296922,-0.22608 0.133824,-0.14465 0.200394,-0.29473 0.064,-0.1473 0.04238,-0.35831 -0.02356,-0.19216 -0.161248,-0.4228 -0.140261,-0.22785 -0.42678,-0.49292 -0.25592,-0.23677 -0.488828,-0.36448 -0.230126,-0.12514 -0.429104,-0.13885 -0.19084,-0.0114 -0.354147,0.0647 -0.16588,0.0789 -0.312571,0.23741 -0.126103,0.13631 -0.19483,0.29988 -0.06852,0.16893 -0.03981,0.35553 z"
           style="font-style:normal;font-variant:normal;font-weight:bold;font-stretch:normal;font-size:7.76111px;font-family:sans-serif;-inkscape-font-specification:'sans-serif, Bold';font-variant-ligatures:normal;font-variant-caps:normal;font-variant-numeric:normal;font-variant-east-asian:normal"
           id="path3436" />
        <path
           d="m 93.109741,105.61411 1.151024,-0.82699 0.869006,1.2095 -1.151024,0.82699 z"
           style="font-style:normal;font-variant:normal;font-weight:bold;font-stretch:normal;font-size:7.76111px;font-family:sans-serif;-inkscape-font-specification:'sans-serif, Bold';font-variant-ligatures:normal;font-variant-caps:normal;font-variant-numeric:normal;font-variant-east-asian:normal"
           id="path3438" />
      </g>
    </g>
  </g>
</svg>
